<?xml version="1.0" encoding="UTF-8" standalone="no"?>
<svg
   xmlns:dc="http://purl.org/dc/elements/1.1/"
   xmlns:cc="http://creativecommons.org/ns#"
   xmlns:rdf="http://www.w3.org/1999/02/22-rdf-syntax-ns#"
   xmlns:svg="http://www.w3.org/2000/svg"
   xmlns="http://www.w3.org/2000/svg"
   xmlns:sodipodi="http://sodipodi.sourceforge.net/DTD/sodipodi-0.dtd"
   xmlns:inkscape="http://www.inkscape.org/namespaces/inkscape"
   sodipodi:docname="cigodo.svg"
   inkscape:version="1.0 (4035a4fb49, 2020-05-01)"
   id="svg8"
   version="1.1"
   viewBox="0 0 210 297"
   height="297mm"
   width="210mm">
  <defs
     id="defs2" />
  <sodipodi:namedview
     inkscape:window-maximized="1"
     inkscape:window-y="-8"
     inkscape:window-x="-8"
     inkscape:window-height="837"
     inkscape:window-width="1600"
     showgrid="false"
     inkscape:document-rotation="0"
     inkscape:current-layer="layer1"
     inkscape:document-units="mm"
     inkscape:cy="391.03383"
     inkscape:cx="276.87626"
     inkscape:zoom="3.5328209"
     inkscape:pageshadow="2"
     inkscape:pageopacity="0.0"
     borderopacity="1.0"
     bordercolor="#666666"
     pagecolor="#ffffff"
     id="base" />
  <metadata
     id="metadata5">
    <rdf:RDF>
      <cc:Work
         rdf:about="">
        <dc:format>image/svg+xml</dc:format>
        <dc:type
           rdf:resource="http://purl.org/dc/dcmitype/StillImage" />
        <dc:title></dc:title>
      </cc:Work>
    </rdf:RDF>
  </metadata>
  <g
     id="layer1"
     inkscape:groupmode="layer"
     inkscape:label="Capa 1">
    <text
       id="text835"
       y="121.70833"
       x="58.208332"
       style="font-style:normal;font-weight:normal;font-size:8.46667px;line-height:1.25;font-family:sans-serif;fill:#000000;fill-opacity:1;stroke:none;stroke-width:0.264583"
       xml:space="preserve"><tspan
         style="font-style:normal;font-variant:normal;font-weight:normal;font-stretch:normal;font-size:16.9333px;font-family:'Century Gothic';-inkscape-font-specification:'Century Gothic';stroke-width:0.264583"
         y="121.70833"
         x="58.208332"
         id="tspan833"
         sodipodi:role="line">[C];</tspan></text>
    <g
       id="g874">
      <path
         id="path857"
         style="font-style:normal;font-variant:normal;font-weight:normal;font-stretch:normal;font-size:16.9333px;line-height:1.25;font-family:'Century Gothic';-inkscape-font-specification:'Century Gothic';fill:#000000;fill-opacity:1;stroke:none;stroke-width:0.264583"
         d="m 58.863049,80.226204 h 2.778119 v 1.174086 h -1.620569 v 13.452382 h 1.620569 v 1.132745 h -2.778119 z" />
      <path
         id="path859"
         style="font-style:normal;font-variant:normal;font-weight:normal;font-stretch:normal;font-size:16.9333px;line-height:1.25;font-family:'Century Gothic';-inkscape-font-specification:'Century Gothic';fill:#000000;fill-opacity:1;stroke:none;stroke-width:0.264583"
         d="m 75.225842,84.281763 -0.959113,0.73587 q -0.793748,-1.033526 -1.909957,-1.562692 -1.10794,-0.537434 -2.439123,-0.537434 -1.455205,0 -2.695437,0.702799 -1.240232,0.694529 -1.926494,1.876884 -0.677993,1.174086 -0.677993,2.645828 0,2.224149 1.521351,3.712428 1.529619,1.488278 3.852987,1.488278 2.554878,0 4.274666,-2.000908 l 0.959113,0.727603 q -0.909503,1.15755 -2.273759,1.794202 -1.355986,0.628384 -3.034434,0.628384 -3.19153,0 -5.035341,-2.12493 -1.546156,-1.794202 -1.546156,-4.332544 0,-2.670633 1.868616,-4.489639 1.876884,-1.827275 4.696345,-1.827275 1.703252,0 3.075775,0.677993 1.372523,0.669725 2.248954,1.885153 z" />
      <path
         id="path861"
         style="font-style:normal;font-variant:normal;font-weight:normal;font-stretch:normal;font-size:16.9333px;line-height:1.25;font-family:'Century Gothic';-inkscape-font-specification:'Century Gothic';fill:#000000;fill-opacity:1;stroke:none;stroke-width:0.264583"
         d="m 79.723751,95.985417 h -2.77812 v -1.174086 h 1.612302 V 81.358949 h -1.612302 v -1.132745 h 2.77812 z" />
      <path
         id="path863"
         style="font-style:normal;font-variant:normal;font-weight:normal;font-stretch:normal;font-size:16.9333px;line-height:1.25;font-family:'Century Gothic';-inkscape-font-specification:'Century Gothic';fill:#000000;fill-opacity:1;stroke:none;stroke-width:0.264583"
         d="m 84.692945,82.781082 q 0.421679,0 0.719334,0.297656 0.297656,0.297655 0.297656,0.727602 0,0.429947 -0.297656,0.727603 -0.297655,0.297656 -0.719334,0.297656 -0.421679,0 -0.719335,-0.297656 -0.297655,-0.297656 -0.297655,-0.727603 0,-0.421678 0.297655,-0.719334 0.297656,-0.305924 0.719335,-0.305924 z m -0.124023,6.994908 1.116208,0.529166 -1.678447,3.125384 -0.818553,-0.347265 z" />
    </g>
  </g>
</svg>
